<svg
   xmlns:dc="http://purl.org/dc/elements/1.1/"
   xmlns:cc="http://creativecommons.org/ns#"
   xmlns:rdf="http://www.w3.org/1999/02/22-rdf-syntax-ns#"
   xmlns:svg="http://www.w3.org/2000/svg"
   xmlns="http://www.w3.org/2000/svg"
   viewBox="0 0 755.90668 755.90668"
   height="755.90668"
   width="755.90668"
   xml:space="preserve"
   id="svg2"
   version="1.1"><defs
     id="defs6"><clipPath
       id="clipPath20"
       clipPathUnits="userSpaceOnUse"><path
         id="path18"
         d="m 2449.74,347.18 c -385.55,0 -778.12,135.859 -1077.12,372.789 -270.53,214.34 -593.007,613.451 -593.007,1297.411 0,279.9 1.211,1119.38 1.211,1119.38 l -0.066,2061.02 H 2997.83 c 565.48,0 1082.24,-208.09 1455.32,-586.05 371.85,-376.62 577.21,-898.43 578.43,-1469.27 v -9.23 C 5030.36,2557.42 4825.34,2031.6 4454.29,1652.06 4140.93,1331.6 3726.03,1131.98 3266.06,1076.19 V 347.18 Z" /></clipPath><linearGradient
       id="linearGradient28"
       spreadMethod="pad"
       gradientTransform="matrix(4251.96,0,0,-4251.96,779.614,2772.47)"
       gradientUnits="userSpaceOnUse"
       y2="0"
       x2="1"
       y1="0"
       x1="0"><stop
         id="stop22"
         offset="0"
         style="stop-opacity:1;stop-color:#656263" /><stop
         id="stop24"
         offset="0.65604535"
         style="stop-opacity:1;stop-color:#656263" /><stop
         id="stop26"
         offset="1"
         style="stop-opacity:1;stop-color:#bdbcbc" /></linearGradient></defs><g
     transform="matrix(1.3333333,0,0,-1.3333333,0,755.90667)"
     id="g10"><g
       transform="scale(0.1)"
       id="g12"><g
         id="g14"><g
           clip-path="url(#clipPath20)"
           id="g16"><path
             id="path30"
             style="fill:url(#linearGradient28);fill-opacity:1;fill-rule:nonzero;stroke:none"
             d="m 2449.74,347.18 c -385.55,0 -778.12,135.859 -1077.12,372.789 -270.53,214.34 -593.007,613.451 -593.007,1297.411 0,279.9 1.211,1119.38 1.211,1119.38 l -0.066,2061.02 H 2997.83 c 565.48,0 1082.24,-208.09 1455.32,-586.05 371.85,-376.62 577.21,-898.43 578.43,-1469.27 v -9.23 C 5030.36,2557.42 4825.34,2031.6 4454.29,1652.06 4140.93,1331.6 3726.03,1131.98 3266.06,1076.19 V 347.18 h -816.32" /></g></g><path
         id="path32"
         style="fill:#ffffff;fill-opacity:1;fill-rule:nonzero;stroke:none"
         d="M 4052.13,3135.72 C 4051.54,2480.1 3627.79,2039.63 2997.83,2039.63 h -711.28 v -692.44 c -204.55,45.67 -527.5,193.48 -527.5,670.19 0,270.39 1.22,1063.97 1.36,1118.17 v 0.27 c 0,1.69 0,2.63 0,2.73 l -0.07,1079.75 h 1237.49 c 630.04,0 1053.71,-433.98 1054.3,-1079.75 z M 2997.83,4544.8 H 1433.81 l 0.07,-1403.99 -0.07,-1.11 0.07,-2.9 v -1.01 c 0,0 -1.28,-838.78 -1.28,-1118.41 0,-804.65 665.39,-1017.15 1017.14,-1017.15 H 2613 v 712.96 h 384.83 c 811.44,0 1379.03,583.69 1380.84,1420.04 v 7.79 c -1.81,826.7 -569.4,1403.78 -1380.84,1403.78" /></g></g></svg>