<?xml version="1.0" encoding="UTF-8" standalone="no"?>
<svg
   xmlns:dc="http://purl.org/dc/elements/1.1/"
   xmlns:cc="http://creativecommons.org/ns#"
   xmlns:rdf="http://www.w3.org/1999/02/22-rdf-syntax-ns#"
   xmlns:svg="http://www.w3.org/2000/svg"
   xmlns="http://www.w3.org/2000/svg"
   viewBox="0 0 755.90668 755.90668"
   height="755.90668"
   width="755.90668"
   xml:space="preserve"
   id="svg2"
   version="1.1"><metadata
     id="metadata8"><rdf:RDF><cc:Work
         rdf:about=""><dc:format>image/svg+xml</dc:format><dc:type
           rdf:resource="http://purl.org/dc/dcmitype/StillImage" /></cc:Work></rdf:RDF></metadata><defs
     id="defs6"><clipPath
       id="clipPath22"
       clipPathUnits="userSpaceOnUse"><path
         id="path20"
         d="m 2438.79,334.609 c -385.56,0 -778.13,135.86 -1077.12,372.801 -270.54,214.328 -593.014,613.44 -593.014,1297.4 0,279.9 1.215,1119.38 1.215,1119.38 l -0.07,2061.02 H 2986.87 c 565.47,0 1082.25,-208.09 1455.32,-586.06 371.86,-376.61 577.21,-898.41 578.44,-1469.25 v -9.24 C 5019.4,2544.86 4814.39,2019.04 4443.33,1639.5 4129.97,1319.04 3715.07,1119.41 3255.1,1063.63 V 334.609 Z" /></clipPath><linearGradient
       id="linearGradient28"
       spreadMethod="pad"
       gradientTransform="matrix(4251.97,0,0,-4251.97,768.657,2759.92)"
       gradientUnits="userSpaceOnUse"
       y2="0"
       x2="1"
       y1="0"
       x1="0"><stop
         id="stop24"
         offset="0"
         style="stop-opacity:1;stop-color:#3871c1" /><stop
         id="stop26"
         offset="1"
         style="stop-opacity:1;stop-color:#51ade5" /></linearGradient></defs><g
     transform="matrix(1.3333333,0,0,-1.3333333,0,755.90667)"
     id="g10"><g
       transform="scale(0.1)"
       id="g12"><path
         id="path14"
         style="fill:#231f20;fill-opacity:1;fill-rule:nonzero;stroke:none"
         d="M 21259.4,-541.328 H -1234.19 V 5999.33 H 21259.4 V -541.328" /><g
         id="g16"><g
           clip-path="url(#clipPath22)"
           id="g18"><path
             id="path30"
             style="fill:url(#linearGradient28);fill-opacity:1;fill-rule:nonzero;stroke:none"
             d="m 2438.79,334.609 c -385.56,0 -778.13,135.86 -1077.12,372.801 -270.54,214.328 -593.014,613.44 -593.014,1297.4 0,279.9 1.215,1119.38 1.215,1119.38 l -0.07,2061.02 H 2986.87 c 565.47,0 1082.25,-208.09 1455.32,-586.06 371.86,-376.61 577.21,-898.41 578.44,-1469.25 v -9.24 C 5019.4,2544.86 4814.39,2019.04 4443.33,1639.5 4129.97,1319.04 3715.07,1119.41 3255.1,1063.63 V 334.609 h -816.31" /></g></g><path
         id="path32"
         style="fill:#ffffff;fill-opacity:1;fill-rule:nonzero;stroke:none"
         d="m 4041.18,3123.16 c -0.6,-655.62 -424.34,-1096.09 -1054.31,-1096.09 h -711.28 v -692.45 c -204.55,45.68 -527.49,193.48 -527.49,670.19 0,270.39 1.21,1063.97 1.35,1118.17 v 0.28 c 0,1.67 0,2.62 0,2.72 l -0.07,1079.76 h 1237.49 c 630.04,0 1053.71,-433.99 1054.31,-1079.76 z M 2986.87,4532.24 H 1422.86 l 0.07,-1403.98 -0.07,-1.12 0.07,-2.91 v -1 c 0,0 -1.29,-838.79 -1.29,-1118.42 0,-804.65 665.4,-1017.15 1017.15,-1017.15 h 163.26 v 712.96 h 384.82 c 811.45,0 1379.02,583.69 1380.85,1420.04 v 7.79 c -1.83,826.7 -569.4,1403.79 -1380.85,1403.79" /></g></g></svg>