<svg
   xmlns="http://www.w3.org/2000/svg"
   viewBox="0 0 755.90668 755.90668"
   height="755.90668"
   width="755.90668"
   xml:space="preserve"
   id="svg2"
   version="1.1"><defs
     id="defs6" /><g
     transform="matrix(1.3333333,0,0,-1.3333333,0,755.90667)"
     id="g10"><g
       transform="scale(0.1)"
       id="g12"><path
         id="path14"
         style="fill:none;fill-opacity:1;fill-rule:nonzero;stroke:none"
         d="M 7086.22,-541.328 H -15407.4 V 5999.33 H 7086.22 V -541.328" /><path
         id="path16"
         style="fill:#ffffff;fill-opacity:1;fill-rule:nonzero;stroke:none"
         d="m 2439.93,344.891 c -385.55,0 -778.12,135.859 -1077.12,372.789 -270.53,214.332 -593.009,613.45 -593.009,1297.4 0,279.9 1.211,1119.39 1.211,1119.39 l -0.071,2061.01 H 2988.01 c 565.48,0 1082.25,-208.09 1455.32,-586.04 371.86,-376.62 577.22,-898.43 578.43,-1469.27 v -9.24 C 5020.55,2555.13 4815.52,2029.31 4444.48,1649.77 4131.12,1329.31 3716.22,1129.68 3256.25,1073.9 V 344.891 h -816.32" /><path
         id="path18"
         style="fill:#231f20;fill-opacity:1;fill-rule:evenodd;stroke:none"
         d="M 4042.32,31 h 1237.49 c 630.04,0 1053.72,-433.99 1054.31,-1079.76 z M 2988.01,4542.5 H 1424 l 0.07,-1403.98 -0.07,-1.11 0.07,-2.9 v -1.01 c 0,0 -1.29,-838.79 -1.29,-1118.42 0,-804.65 665.4,-1017.15 1017.15,-1017.15 h 163.26 v 712.96 h 384.82 c 811.45,0 1379.03,583.69 1380.85,1420.04 v 7.79 c -1.82,826.7 -569.4,1403.78 -1380.85,1403.78" /></g></g></svg>