<svg
   xmlns:dc="http://purl.org/dc/elements/1.1/"
   xmlns:cc="http://creativecommons.org/ns#"
   xmlns:rdf="http://www.w3.org/1999/02/22-rdf-syntax-ns#"
   xmlns:svg="http://www.w3.org/2000/svg"
   xmlns="http://www.w3.org/2000/svg"
   viewBox="0 0 755.90668 755.90668"
   height="755.90668"
   width="755.90668"
   xml:space="preserve"
   id="svg2"
   version="1.1"><defs
     id="defs6" /><g
     transform="matrix(1.3333333,0,0,-1.3333333,0,755.90667)"
     id="g10"><g
       transform="scale(0.1)"
       id="g12"><path
         id="path14"
         style="fill:#fff;fill-opacity:1;fill-rule:nonzero;stroke:none"
         d="m 2439.93,347.18 c -385.55,0 -778.12,135.859 -1077.12,372.789 -270.53,214.34 -593.009,613.451 -593.009,1297.411 0,279.9 1.211,1119.38 1.211,1119.38 l -0.071,2061.02 H 2988.01 c 565.48,0 1082.25,-208.09 1455.32,-586.05 371.86,-376.62 577.22,-898.43 578.43,-1469.27 v -9.23 C 5020.55,2557.42 4815.52,2031.6 4444.48,1652.06 4131.12,1331.6 3716.22,1131.98 3256.25,1076.19 V 347.18 h -816.32" /><path
         id="path16"
         style="fill-opacity:1;fill-rule:nonzero;stroke:none"
         d="M 4042.32,3135.72 C 4041.73,2480.1 3617.98,2039.63 2988.01,2039.63 h -711.28 v -692.44 c -204.54,45.67 -527.49,193.48 -527.49,670.19 0,270.39 1.21,1063.97 1.35,1118.17 v 0.27 c 0,1.69 0,2.63 0,2.73 l -0.07,1079.75 h 1237.49 c 630.04,0 1053.72,-433.98 1054.31,-1079.75 z M 2988.01,4544.8 H 1424 l 0.07,-1403.99 -0.07,-1.11 0.07,-2.9 v -1.01 c 0,0 -1.29,-838.78 -1.29,-1118.41 0,-804.65 665.4,-1017.15 1017.15,-1017.15 h 163.26 v 712.96 h 384.82 c 811.45,0 1379.03,583.69 1380.85,1420.04 v 7.79 c -1.82,826.7 -569.4,1403.78 -1380.85,1403.78" /></g></g></svg>