<svg
   xmlns:dc="http://purl.org/dc/elements/1.1/"
   xmlns:cc="http://creativecommons.org/ns#"
   xmlns:rdf="http://www.w3.org/1999/02/22-rdf-syntax-ns#"
   xmlns:svg="http://www.w3.org/2000/svg"
   xmlns="http://www.w3.org/2000/svg"
   viewBox="0 0 755.90668 755.90668"
   height="755.90668"
   width="755.90668"
   xml:space="preserve"
   id="svg2"
   version="1.1"><defs
     id="defs6"><clipPath
       id="clipPath20"
       clipPathUnits="userSpaceOnUse"><path
         id="path18"
         d="m 2438.79,336.91 c -385.56,0 -778.13,135.86 -1077.12,372.789 -270.54,214.34 -593.014,613.451 -593.014,1297.401 0,279.91 1.215,1119.39 1.215,1119.39 l -0.07,2061.01 H 2986.87 c 565.47,0 1082.25,-208.08 1455.32,-586.05 371.86,-376.61 577.21,-898.42 578.44,-1469.26 v -9.24 C 5019.4,2547.15 4814.39,2021.33 4443.33,1641.79 4129.97,1321.33 3715.07,1121.7 3255.1,1065.92 V 336.91 Z" /></clipPath><linearGradient
       id="linearGradient26"
       spreadMethod="pad"
       gradientTransform="matrix(4251.97,0,0,-4251.97,768.657,2762.2)"
       gradientUnits="userSpaceOnUse"
       y2="0"
       x2="1"
       y1="0"
       x1="0"><stop
         id="stop22"
         offset="0"
         style="stop-opacity:1;stop-color:#3871c1" /><stop
         id="stop24"
         offset="1"
         style="stop-opacity:1;stop-color:#51ade5" /></linearGradient></defs><g
     transform="matrix(1.3333333,0,0,-1.3333333,0,755.90667)"
     id="g10"><g
       transform="scale(0.1)"
       id="g12"><g
         id="g14"><g
           clip-path="url(#clipPath20)"
           id="g16"><path
             id="path28"
             style="fill:url(#linearGradient26);fill-opacity:1;fill-rule:nonzero;stroke:none"
             d="m 2438.79,336.91 c -385.56,0 -778.13,135.86 -1077.12,372.789 -270.54,214.34 -593.014,613.451 -593.014,1297.401 0,279.91 1.215,1119.39 1.215,1119.39 l -0.07,2061.01 H 2986.87 c 565.47,0 1082.25,-208.08 1455.32,-586.05 371.86,-376.61 577.21,-898.42 578.44,-1469.26 v -9.24 C 5019.4,2547.15 4814.39,2021.33 4443.33,1641.79 4129.97,1321.33 3715.07,1121.7 3255.1,1065.92 V 336.91 h -816.31" /></g></g><path
         id="path30"
         style="fill:#ffffff;fill-opacity:1;fill-rule:nonzero;stroke:none"
         d="m 4041.18,3125.45 c -0.6,-655.61 -424.34,-1096.08 -1054.31,-1096.08 h -711.28 v -692.45 c -204.55,45.67 -527.49,193.47 -527.49,670.18 0,270.39 1.21,1063.98 1.35,1118.18 v 0.27 c 0,1.68 0,2.63 0,2.72 l -0.07,1079.76 h 1237.49 c 630.04,0 1053.71,-433.98 1054.31,-1079.76 z M 2986.87,4534.53 H 1422.86 l 0.07,-1403.98 -0.07,-1.11 0.07,-2.91 v -1.01 c 0,0 -1.29,-838.79 -1.29,-1118.42 0,-804.65 665.4,-1017.151 1017.15,-1017.151 h 163.26 v 712.961 h 384.82 c 811.45,0 1379.02,583.69 1380.85,1420.04 v 7.8 c -1.83,826.69 -569.4,1403.78 -1380.85,1403.78" /></g></g></svg>