<svg class='ab' xmlns="http://www.w3.org/2000/svg" viewBox="0 0 808 265"> <path class="abLogo-text" d="M765 226.904c0-2.284.571-11.422.571-24.273 0-13.42.286-26.27.286-39.693 0-11.707-.571-24.843-.571-33.696 0-8.28.285-21.702.285-27.128l-.285-29.413c0-13.992-.286-25.986-.286-30.269 0-6.853 1.714-7.139 7.141-7.71 5.713-.57 17.424-1.142 27.421-.286 4.57.286 7.712 2.57 7.712 8.853 0 62.67-.004 123.9 0 183.901-.022 3.712-.285 6.567-1.142 8.281-1.143 1.142-2 1.713-5.142 1.713-3.999 0-7.426-.285-11.997-.285-5.141 0-12.282.856-15.424.856-5.427 0-8.569-2.284-8.569-10.85m-54.256-75.946c1.143-1.142 1.143-5.997 1.143-10.566 0-5.425 0-9.423-.286-12.85-.286-4.283-.571-8.281-1.714-11.422-1.142-2.856-3.428-4.855-6.855-4.855-4 0-6.284 2.285-7.141 6.282-1.143 5.712-1.428 13.422-1.428 21.989 0 8.566.57 10.565 2.57 11.708 1.143.571 2.57.856 4.856.856 5.713 0 7.998-.285 8.855-1.142m-32.562 77.958c-8.57-6.282-13.14-12.565-16.853-22.845-3.427-9.709-4.57-23.13-5.141-39.978-.286-9.424-.286-17.419.285-27.129.572-9.709 1.429-19.989 3.999-29.698 2.857-11.137 7.14-18.276 14.853-25.129C681.895 78.427 690.464 75 704.46 75c13.71 0 25.707 3.998 34.276 15.706 5.713 7.71 7.427 16.277 8.855 22.559 1.428 6.282 2.57 15.706 2.57 23.702 0 8.852-.285 19.703-.856 26.271-.286 3.998-.571 5.426-.857 6.854-1.428 7.71-5.713 11.422-14.567 11.422-4.856 0-9.712-.286-14.568-.286h-11.425c-6.57 0-9.141.572-10.57 1.428-1.427.857-1.998 2.57-1.998 4.284 0 3.712 1.713 5.996 4.284 7.995 3.999 3.141 8.569 4.855 15.139 4.855 4.856 0 8.283-.286 12.854-1.714 2.856-.856 5.712-1.998 7.712-2.855 1.999-.857 4.856-1.999 6.855-1.999 3.713 0 5.713 1.713 5.713 5.711 0 3.427 0 7.139-.286 9.995-.286 3.712-.286 10.565-.857 14.563-.857 6.854-4 9.424-11.14 11.423-8.283 2.284-15.138 2.855-24.28 2.855-14.281 0-24.563-2.57-33.132-8.852zm-95.47 5.997c-2.856-1.142-4.57-2.284-5.713-3.712-1.142-1.428-1.999-3.141-1.999-9.424v-14.563c0-6.283.285-7.996 1.142-9.424.857-1.142 2-1.428 3.142-1.428 1.714 0 3.714.571 5.713 1.143 4.57 1.427 7.712 2.855 11.997 2.855 6.855 0 10.854-4.283 10.854-13.136 0-6.567-1.999-10.565-4.285-13.421-2.285-3.141-5.427-5.711-8.854-9.138-3.999-3.998-7.712-8.567-11.426-13.707-5.141-7.139-7.998-19.132-7.998-29.698 0-9.709 1.143-18.847 7.427-28.842C589.282 81.854 598.136 75 616.703 75c5.427 0 11.711.857 16.281 1.999 5.427 1.428 8.569 3.141 8.855 7.425.285 4.854.285 8.567.285 12.564v13.136c0 4.569-1.142 5.711-4.855 5.711-2.286 0-4.571-.571-7.141-1.427-2.285-.857-4.856-1.428-7.713-1.428-4.57 0-7.712 2.855-7.712 8.281 0 3.427.857 6.282 2.857 8.567 2.285 2.57 4.855 4.854 9.426 9.994 3.999 4.569 9.426 11.423 13.425 18.276 4.284 7.139 6.855 17.991 6.855 29.413 0 14.849-3.999 25.415-9.997 33.411-7.713 9.994-18.852 16.848-35.134 16.848-7.998 0-14.567-.857-19.423-2.856zm-60.156-41.549c.286-6.853.286-18.276.286-21.703 0-3.997 0-6.853-.857-9.709-.857-3.141-2.857-5.425-7.141-5.425-3.142 0-6.57 1.713-7.712 5.425-1.143 3.427-1.429 6.854-1.429 12.565 0 7.425 0 13.136.286 19.133.286 5.996 2.856 11.708 8.284 11.708 5.712 0 7.997-4.284 8.283-11.994m-47.13 33.696c-4.285-5.14-7.141-13.707-7.998-22.559-.857-8.567-1.428-15.706-1.428-23.131 0-4.568 0-10.565 1.428-21.702 1.143-9.709 5.713-19.133 12.854-25.701 5.427-4.854 12.282-6.853 19.994-6.853 5.427 0 10.569.857 13.425 1.713 2.285.571 4.57 1.428 6.856 1.428 2.856 0 3.998-2.284 3.998-5.711 0-2.856-.856-5.711-2.57-7.425-3.428-3.426-8.569-4.569-14.568-4.569-4.856 0-9.711.857-12.853 1.714-3.142.856-5.713 1.999-8.569 2.855-2.857.857-5.428 1.714-7.713 1.714-1.713 0-3.142-.286-4.284-1.428-1.143-1.142-1.428-3.427-1.714-5.997-.286-2.855-.286-4.569-.286-9.994V89.421c0-3.998.857-6.282 3.999-7.71 3.142-1.428 10.283-3.141 18.852-4.284 5.999-.856 11.426-1.427 19.709-1.427 12.854 0 22.28 2.57 30.849 7.424 9.997 5.712 14.567 17.705 15.71 27.414.857 7.71.571 16.563.571 25.701l.286 33.41c0 16.848.285 26.843.285 37.98 0 5.996-.571 11.422-.571 17.419v5.997c-.285 2.855-3.713 3.712-8.283 3.712H528.84c-1.714 0-2.285-.857-2.285-2.57v-4.855c0-1.713-.571-2.57-2-2.57-1.428 0-3.427 3.141-5.712 5.14-4.285 4.569-10.854 6.854-19.995 6.854-9.711 0-17.709-3.141-23.422-9.995M393.132 89.827c0 6.568-.286 13.992-.286 17.705 0 5.14 2.285 6.568 6.57 6.568 2.856 0 5.427-.571 7.712-2.57 2.857-2.57 5.427-7.425 5.427-21.989 0-16.848-4.284-20.56-13.425-20.56-4.57 0-6.284 1.142-6.284 3.427 0 5.425.286 12.564.286 17.419m21.137 79.386c0-4.569-.571-11.423-2.285-16.563-1.714-5.14-4.856-8.281-10.854-8.281-7.141 0-8.284 2.57-8.284 5.426 0 6.853-.285 14.278-.285 18.847 0 8.566-.286 18.847.285 25.7.286 3.998 1.714 5.997 5.142 5.997 8.569 0 11.711-4.284 13.996-11.423 1.714-5.711 2.285-13.992 2.285-19.703m41.703 3.427c0 19.418-4.285 34.838-12.568 45.689-9.712 12.85-20.28 17.99-47.416 17.99h-28.563c-11.711 0-14.853-2.284-15.139-11.136-.286-7.711-.286-16.848-.286-23.702 0-8.567.572-36.552.572-47.403V67.839c0-10.566-.286-18.847-.286-28.271 0-3.426 0-5.14 5.998-5.711 6.57-.571 15.996-.857 28.564-.857h5.427c31.134 0 40.846 5.426 48.844 14.279 7.712 8.566 11.711 22.559 11.711 37.693 0 16.277-3.713 31.127-13.711 39.693 11.14 7.139 16.853 23.131 16.853 47.975zm-245.69 53.263c-4.57-6.282-6.855-15.706-6.855-27.128 0-8.281.285-18.847.285-28.271 0-7.424-.285-14.563-.285-23.987 0-7.139.285-18.276.285-21.702 0-1.428-.571-1.714-3.999-1.714h-1.142c-2 0-2.571-1.713-2.571-4.569l.286-16.562c0-4.569-.286-10.566-.286-13.136 0-1.999 0-3.141 2.285-3.141h4.285c1.714 0 1.999-.857 1.999-2.856l-.285-15.134-.286-12.565c0-7.425 1.714-9.138 7.427-9.138 5.141 0 8.854.286 12.853.286 4.856 0 8.855-.286 11.426-.286 1.999 0 3.999.286 5.427 1.428 1.428 1.142 2.57 3.141 2.57 5.711 0 9.423-.285 18.847-.285 29.413 0 2.284.285 3.426 1.714 3.426l8.854-.285c3.428 0 3.714 1.142 4.285 4.569.286 1.999.571 5.997.571 9.138 0 6.282 0 12.279-.571 18.561-.286 2.856-.571 3.998-3.142 3.998-8.284 0-10.283.286-11.14 1.713-.571.857-.571 2.57-.857 7.996-.285 6.568-.285 23.987-.285 28.556 0 7.71-.286 18.847.285 26.557.286 3.998 1.428 7.71 2.857 9.138 1.713 1.714 4.57 2.57 8.569 2.57 2.57 0 3.713.571 3.713 3.141v12.851c0 3.426.286 9.423.286 14.563 0 3.427-1.429 4.569-5.428 5.711-5.427 1.428-9.997 1.999-17.423 1.999-11.14 0-20.566-3.998-25.422-10.851zM186.269 93.99v10.566c0 3.998 0 11.137-.285 14.849-.286 3.712-1.143 4.284-3.428 4.569-6.57.286-11.14 3.712-12.568 9.138-1.428 5.997-1.714 13.993-1.428 21.417.286 6.854.571 12.85.571 19.989l.286 25.13c0 11.993.571 22.273.571 26.557 0 2.57-.571 5.711-2.285 6.853-2.571 1.714-5.427 1.999-14.853 1.999h-16.853c-4.284 0-6.569-.857-7.426-5.14-.286-1.428-.286-7.996-.286-14.278L128 190.795c0-11.993.285-27.985.285-41.977v-29.984c0-11.993-.285-21.417-.285-33.411 0-4.854 1.142-7.424 8.283-7.424h3.713c4.285 0 9.712-.286 14.568-.286 4.57 0 5.141 1.999 5.427 8.567l.857 19.418c1.999-10.851 6.284-19.989 9.997-23.987 3.428-3.712 7.141-5.711 11.997-5.711 3.142 0 3.713 1.142 3.713 4.569zM64.554 163.788c2.856 0 3.428 0 3.428-2.856 0-3.712-1.143-16.277-2.571-26.842-.571-3.998-1.428-10.28-1.714-13.993-.571-5.711-1.999-15.991-2.571-20.275-.857-6.282-1.142-8.281-2.57-8.281-1.429 0-1.714 1.999-2.571 8.567l-2.571 19.989c-.857 7.425-1.714 15.706-2.285 20.846-.857 6.568-1.999 16.563-1.999 20.846 0 1.713.571 1.999 3.142 1.999zm7.712 52.543c-.571-6.282-.857-10.28-1.714-14.278-.857-3.427-2.285-4.283-12.282-4.283-9.712 0-11.14.571-11.997 3.426-1.142 3.427-1.714 7.711-2.57 12.565-.572 2.856-1.143 6.854-2 13.707-.571 5.426-2.285 7.996-7.998 7.996-1.142 0-5.141.285-11.996.285-6.284 0-11.14 0-14.854-.285C2.571 235.178 0 234.321 0 231.18c0-1.428.571-5.14.857-7.139l2.856-16.848c3.999-23.701 7.713-47.403 11.712-71.104 2.856-17.134 5.427-35.41 8.283-52.543 2.571-15.421 4.856-28.842 7.712-43.691.857-2.856 2-3.713 4.57-4.284C38.561 35 42.846 35 49.13 35c4.284 0 11.139.286 16.281.286 3.999 0 9.426-.286 11.997-.286 4.57 0 7.426 1.142 8.283 5.14l2.571 12.851c7.712 37.979 12.568 76.53 19.423 115.08 3.142 17.705 5.427 35.695 8.284 53.4.571 3.141.856 5.711.856 7.996 0 3.427-.571 5.997-4.284 5.997H98.545c-4.285 0-9.998.571-15.71.571-6.856 0-8.855-.857-9.426-5.997z"/> <path class="abLogo-seperator" d="M293 262.144c0-31.412.286-62.538.286-94.52 0-43.977-.286-87.667-.286-131.644V5.425c0-3.712.286-5.425 5.141-5.425h8.284c4.856 0 5.713.571 5.713 2.855 0 35.981.285 72.247.285 108.228 0 41.12-.285 81.67-.285 122.791v24.843c0 4.855-.286 6.283-3.428 6.283h-9.426c-5.713 0-6.284-.572-6.284-2.856"/> </svg>