<svg class='gb' viewBox="0 0 135 30"><path d="M0 29.692h19.26C21.686 12.529 29.941 1.466 47.686 1.466c7.48 0 13.213 2.406 17.468 6.648V2.4C59.584 1.781 55.247.665 47.687.665 24.234.665 6.062 12.235 0 29.692zm120.897-13.38h-2.954V29.7h9.502v-2.475h-6.548V16.312zm-11.96 7.632h6.51v-2.288h-6.51v-2.868h7.093v-2.476h-10.047V29.7h10.197v-2.475h-7.243v-3.281zm-6.151-1.219a5.02 5.02 0 0 0-1.327-.628 12.924 12.924 0 0 0-1.044-.272c-.84-.212-1.521-.388-2.041-.525-.521-.137-.929-.275-1.223-.413-.295-.137-.493-.287-.593-.45-.1-.162-.15-.375-.15-.637 0-.287.062-.525.188-.713.125-.187.285-.343.48-.468a1.91 1.91 0 0 1 .648-.263c.239-.05.477-.075.715-.075.364 0 .7.032 1.007.094.307.063.58.169.819.319.238.15.429.356.573.619.145.262.229.593.254.993h2.86c0-.775-.147-1.434-.442-1.978a3.852 3.852 0 0 0-1.195-1.34 5.064 5.064 0 0 0-1.721-.76 8.586 8.586 0 0 0-2.023-.234c-.602 0-1.204.081-1.806.244a5.057 5.057 0 0 0-1.618.75 3.98 3.98 0 0 0-1.157 1.265c-.295.506-.443 1.104-.443 1.79 0 .613.116 1.135.349 1.566.231.432.536.791.912 1.078a5.02 5.02 0 0 0 1.28.704c.476.181.965.334 1.468.459.489.138.971.262 1.448.375.476.112.904.244 1.28.394.376.15.68.337.912.562.232.225.348.52.348.881 0 .338-.088.616-.263.835-.176.219-.396.39-.659.516a2.96 2.96 0 0 1-.847.253 5.86 5.86 0 0 1-.846.065c-.39 0-.766-.047-1.13-.14a2.802 2.802 0 0 1-.949-.432 2.12 2.12 0 0 1-.65-.759c-.163-.312-.244-.694-.244-1.144h-2.86c-.012.825.138 1.538.451 2.138.314.6.737 1.093 1.27 1.481a5.417 5.417 0 0 0 1.844.853 8.531 8.531 0 0 0 2.155.272c.915 0 1.721-.106 2.418-.319.696-.212 1.28-.51 1.75-.89.47-.381.824-.835 1.062-1.36a4.085 4.085 0 0 0 .358-1.706c0-.75-.16-1.365-.48-1.847-.32-.481-.7-.865-1.138-1.153zm-17.986 1.8l1.75-4.912h.038l1.694 4.912H84.8zm.282-8.212L80.002 29.7h2.973l1.054-2.981h5.023L90.07 29.7h3.066l-5.023-13.387h-3.03zm-8.357 10.2a1.417 1.417 0 0 1-.48.534c-.2.131-.432.225-.696.281-.263.056-.54.085-.828.085h-3.16v-3.675h3.217c.64 0 1.154.147 1.543.44.388.294.583.784.583 1.472 0 .35-.06.638-.18.863zM71.56 18.6h2.766c.264 0 .517.022.762.066.244.043.46.122.65.234.188.113.338.269.45.469.114.2.17.456.17.768 0 .563-.17.97-.508 1.22-.338.25-.772.374-1.298.374H71.56V18.6zm5.833 3.825c.602-.288 1.057-.656 1.364-1.106.307-.45.461-1.013.461-1.688 0-.625-.104-1.15-.31-1.575a2.582 2.582 0 0 0-.875-1.022 3.791 3.791 0 0 0-1.355-.553 8.398 8.398 0 0 0-1.75-.169h-6.322V29.7h6.51c.603 0 1.189-.075 1.76-.225a4.712 4.712 0 0 0 1.524-.694c.445-.312.8-.716 1.063-1.21.263-.493.394-1.077.394-1.752 0-.837-.203-1.553-.61-2.147-.409-.594-1.026-1.01-1.854-1.247zm53.92-13.04c-.188.512-.439.928-.752 1.246a2.735 2.735 0 0 1-1.072.685 3.8 3.8 0 0 1-1.242.206h-2.634V3.084h2.106c.728 0 1.34.103 1.835.31.496.206.894.503 1.195.89.301.388.518.854.65 1.397a7.78 7.78 0 0 1 .197 1.828c0 .738-.094 1.363-.282 1.875zm2.776-5.063c-.308-.825-.734-1.512-1.28-2.063a5.253 5.253 0 0 0-1.938-1.237 6.947 6.947 0 0 0-2.417-.413h-5.795v13.388h5.795c1.028 0 1.922-.172 2.68-.516a5.332 5.332 0 0 0 1.901-1.415c.508-.6.887-1.313 1.139-2.138a9.25 9.25 0 0 0 .376-2.7c0-1.112-.154-2.081-.461-2.906zM120.346.609h-2.766v8.982h-.037L111.936.609H109v13.388h2.765V5.034h.038l5.588 8.963h2.954V.609zM99.7 8.822l1.75-4.913h.038l1.693 4.913H99.7zm3.312-8.213h-3.03l-5.08 13.388h2.973l1.054-2.981h5.023l1.016 2.98h3.067L103.012.61zM85.6 2.897h3.236c.678 0 1.186.147 1.525.44.338.294.508.766.508 1.416 0 .675-.17 1.163-.508 1.463-.339.3-.847.45-1.525.45H85.6v-3.77zm0 5.869h2.954c.74 0 1.273.162 1.6.487.326.325.539.838.64 1.538.075.537.131 1.1.169 1.687.037.588.138 1.094.3 1.519h2.955a1.953 1.953 0 0 1-.31-.684 5.825 5.825 0 0 1-.152-.854c-.03-.3-.053-.594-.065-.88a66.876 66.876 0 0 0-.038-.75 8.225 8.225 0 0 0-.14-1.013 3.417 3.417 0 0 0-.33-.929 2.564 2.564 0 0 0-.584-.73 2.281 2.281 0 0 0-.903-.46v-.038c.753-.3 1.295-.737 1.628-1.312.332-.575.498-1.256.498-2.044 0-.512-.09-.99-.272-1.434a3.467 3.467 0 0 0-.79-1.172A3.752 3.752 0 0 0 91.517.9 4.343 4.343 0 0 0 89.89.61h-7.244v13.387H85.6V8.766zm-13.748 4.996c.821.357 1.747.535 2.775.535.652 0 1.299-.135 1.938-.403.64-.269 1.223-.74 1.75-1.416l.301 1.519h1.882V6.759h-5.645v2.194h2.973c-.088.938-.399 1.653-.932 2.147-.533.494-1.289.74-2.267.74-.665 0-1.23-.127-1.693-.384a3.22 3.22 0 0 1-1.13-1.022A4.423 4.423 0 0 1 71.174 9a6.792 6.792 0 0 1-.197-1.64c0-.588.066-1.157.198-1.707.131-.55.341-1.04.63-1.472a3.193 3.193 0 0 1 1.129-1.031c.464-.256 1.028-.384 1.693-.384.715 0 1.323.187 1.825.562.502.375.84.938 1.016 1.688h2.822c-.075-.763-.282-1.438-.62-2.025a5.003 5.003 0 0 0-1.29-1.482A5.691 5.691 0 0 0 76.632.6a6.552 6.552 0 0 0-2.004-.31c-1.028 0-1.954.182-2.775.544a5.938 5.938 0 0 0-2.08 1.5 6.686 6.686 0 0 0-1.297 2.241 8.34 8.34 0 0 0-.452 2.784c0 .975.15 1.885.452 2.729a6.51 6.51 0 0 0 1.298 2.203 5.941 5.941 0 0 0 2.079 1.471z"></path></svg>