<svg id="svg2" xmlns="http://www.w3.org/2000/svg" viewBox="0 0 566.93 646.75"><defs><style>.cls-1{fill:#fff;}</style></defs><title>Pedro Magalhães logo arte final-092</title><g id="g10"><g id="g12"><path id="path14" d="M325.32,709.62c-51.4,0-103.75-18.12-143.61-49.71-36.07-28.58-79.07-81.79-79.07-173,0-37.32.16-149.25.16-149.25V62.87H398.4c75.4,0,144.3,27.74,194,78.14,49.59,50.22,77,119.79,77.13,195.9v1.23c-.16,76.78-27.5,146.89-77,197.49-41.78,42.73-97.1,69.35-158.43,76.78v97.21H325.32" transform="translate(-102.64 -62.87)"/><path id="path16" class="cls-1" d="M539,337.81C538.9,425.23,482.4,484,398.4,484H303.56v92.32c-27.27-6.09-70.33-25.8-70.33-89.36,0-36.05.16-141.86.18-149.09V193.47h165c84,0,140.5,57.86,140.58,144ZM398.4,149.93H189.87V337.8s-.18,111.84-.18,149.12c0,107.29,88.72,135.62,135.62,135.62h21.77V527.48H398.4c108.19,0,183.87-77.82,184.11-189.34v-1c-.24-110.22-75.92-187.17-184.11-187.17" transform="translate(-102.64 -62.87)"/></g></g></svg>
